<?xml version="1.0" standalone="no"?>
<!DOCTYPE svg PUBLIC "-//W3C//DTD SVG 20010904//EN"
 "http://www.w3.org/TR/2001/REC-SVG-20010904/DTD/svg10.dtd">
<svg version="1.0" xmlns="http://www.w3.org/2000/svg"
 width="700.000000pt" height="700.000000pt" viewBox="0 0 700.000000 700.000000"
 preserveAspectRatio="xMidYMid meet">
<metadata>
Created by potrace 1.11, written by Peter Selinger 2001-2013
</metadata>
<g transform="translate(0.000000,700.000000) scale(0.100000,-0.100000)"
fill="#000000" stroke="none">
<path d="M3099 6995 c-2 -2 -31 -6 -64 -9 -94 -9 -332 -52 -440 -80 -5 -2 -23
-6 -40 -10 -16 -4 -88 -26 -160 -48 -739 -228 -1413 -732 -1845 -1378 -35 -52
-71 -106 -80 -120 -55 -83 -168 -301 -246 -476 -61 -137 -165 -460 -190 -589
-7 -39 -14 -70 -21 -95 -13 -46 -15 -1248 -3 -1330 29 -190 129 -514 227 -740
56 -128 160 -334 194 -382 11 -14 19 -29 19 -32 0 -10 137 -213 203 -301 63
-83 83 -107 182 -220 376 -428 889 -776 1430 -969 73 -26 288 -92 327 -100
158 -35 318 -66 362 -70 30 -4 61 -8 68 -11 33 -10 192 -18 403 -19 276 -1
388 7 614 45 226 38 484 110 706 199 164 65 451 208 496 246 8 8 19 14 23 14
4 0 19 8 34 18 15 10 63 42 107 72 350 234 674 554 922 910 231 332 409 723
513 1123 31 121 75 362 85 462 3 33 8 80 11 105 10 78 12 461 3 555 -5 50 -11
117 -14 150 -3 33 -7 69 -9 80 -3 18 -7 39 -22 140 -3 17 -9 46 -14 65 -5 19
-12 52 -15 73 -16 100 -124 443 -182 577 -9 19 -22 51 -30 70 -134 311 -356
655 -599 925 -149 166 -400 395 -529 483 -22 15 -42 30 -45 33 -9 11 -125 87
-220 144 -344 209 -758 369 -1137 441 -13 2 -35 6 -50 9 -174 34 -312 43 -634
44 -185 0 -338 -2 -340 -4z"/>
</g>
</svg>
