<?xml version="1.0" encoding="UTF-8"?><svg id="Layer_6" xmlns="http://www.w3.org/2000/svg" xmlns:xlink="http://www.w3.org/1999/xlink" viewBox="0 0 297.52 297.52"><defs><style>.cls-1{fill:url(#linear-gradient);stroke-width:0px;}.cls-2{isolation:isolate;}</style><linearGradient id="linear-gradient" x1="5.3" y1="148.49" x2="292.22" y2="148.49" gradientUnits="userSpaceOnUse"><stop offset="0" stop-color="#f0f"/><stop offset=".06" stop-color="#e033f4"/><stop offset=".16" stop-color="#ac89e3"/><stop offset=".25" stop-color="#86c8d6"/><stop offset=".31" stop-color="#6ef0ce"/><stop offset=".34" stop-color="#6fc"/><stop offset=".41" stop-color="#82e2b9"/><stop offset=".54" stop-color="#c99b89"/><stop offset=".64" stop-color="#f66"/><stop offset="1" stop-color="#f0f"/></linearGradient></defs><g id="path846" class="cls-2"><path class="cls-1" d="M148.76,5.03c8.91,0,15.68,20.68,24.1,22.35s22.83-14.77,30.81-11.46,6.45,25.06,13.67,29.9,26.68-4.94,32.85,1.23-3.64,25.58,1.23,32.85,26.53,5.55,29.9,13.67-13.18,22.13-11.46,30.81c1.67,8.42,22.35,15.19,22.35,24.1s-20.68,15.68-22.35,24.1,14.77,22.83,11.46,30.81-25.06,6.45-29.9,13.67,4.94,26.68-1.23,32.85c-6.17,6.17-25.58-3.64-32.85,1.23s-5.55,26.53-13.67,29.9-22.13-13.18-30.81-11.46c-8.42,1.67-15.19,22.35-24.1,22.35s-15.68-20.68-24.1-22.35c-8.68-1.72-22.83,14.77-30.81,11.46s-6.45-25.06-13.67-29.9c-7.28-4.87-26.68,4.94-32.85-1.23s3.64-25.58-1.23-32.85-26.53-5.55-29.9-13.67,13.18-22.13,11.46-30.81-22.35-15.19-22.35-24.1,20.68-15.68,22.35-24.1-14.77-22.83-11.46-30.81,25.06-6.45,29.9-13.67-4.94-26.68,1.23-32.85,25.58,3.64,32.85-1.23,5.55-26.53,13.67-29.9,22.13,13.18,30.81,11.46,15.19-22.35,24.1-22.35Z"/></g></svg>