<svg version="1.1" id="icons-places" class="icons" xmlns:serif="http://www.serif.com/" xmlns="http://www.w3.org/2000/svg" xmlns:xlink="http://www.w3.org/1999/xlink" x="0px" y="0px" viewBox="0 0 68 68" style="enable-background:new 0 0 68 68;" xml:space="preserve"><path d="M56.5,23.9c-2.4-3.5-6.1-6-10.5-7.1c-4.2-1.1-8.4-0.7-11.9,0.8c-1.3-0.7-2.8-1.3-4.4-1.7l0,0c-4.3-1.1-8.8-0.7-12.6,1.1c-3.9,1.9-6.5,5.1-7.6,9c-1.4,5.4,0.8,11,5.2,14.8c-0.1,3,0.8,6,2.6,8.7c2.4,3.5,6.1,6,10.5,7.1c1.6,0.4,3.2,0.6,4.8,0.6c7.2,0,13.6-4.2,15.3-10.7c0.1-0.3,0.2-0.7,0.2-1c1-0.3,1.9-0.6,2.8-1.1c3.9-1.9,6.5-5.1,7.5-9C59.8,31.6,59,27.5,56.5,23.9zM15.5,37.2c-2.7-2.9-3.9-6.7-2.9-10.4c0.8-3,2.9-5.5,5.9-7c2-1,4.1-1.4,6.4-1.4c1.4,0,2.7,0.2,4.1,0.5c0.7,0.2,1.3,0.4,1.9,0.6c-2.4,1.8-4.3,4.4-5.1,7.4c-0.1,0.3-0.2,0.7-0.2,1c-1,0.3-1.9,0.6-2.8,1.1C19.3,30.8,16.7,33.7,15.5,37.2z M45.2,45.8c-1.6,6.3-9,9.8-16.4,7.9c-3.6-0.9-6.7-3-8.7-5.9c-1.9-2.8-2.6-6-1.8-9c0.8-3,2.9-5.5,5.9-7c2-1,4.1-1.4,6.4-1.4c1.4,0,2.7,0.2,4.1,0.5l0,0C42.1,32.8,46.8,39.5,45.2,45.8z M55.8,34.7c-0.8,3-2.9,5.5-5.9,7c-0.4,0.2-0.9,0.4-1.3,0.6c-0.5-6.4-5.7-12.4-13.1-14.3c-2.2-0.6-4.4-0.7-6.5-0.6c1.5-4.9,6.5-8.1,12.2-8.1c1.3,0,2.7,0.2,4.1,0.5c3.6,0.9,6.7,3,8.7,5.9C55.9,28.5,56.6,31.7,55.8,34.7z"/></svg>
